<?xml version="1.0" encoding="UTF-8" standalone="no"?>
<!-- Created with Inkscape (http://www.inkscape.org/) -->

<svg
   width="256"
   height="256"
   viewBox="0 0 67.733332 67.733333"
   version="1.1"
   id="svg1"
   inkscape:version="1.4.2 (ebf0e940d0, 2025-05-08)"
   sodipodi:docname="dct_and_dft.svg"
   xmlns:inkscape="http://www.inkscape.org/namespaces/inkscape"
   xmlns:sodipodi="http://sodipodi.sourceforge.net/DTD/sodipodi-0.dtd"
   xmlns="http://www.w3.org/2000/svg"
   xmlns:svg="http://www.w3.org/2000/svg">
  <sodipodi:namedview
     id="namedview1"
     pagecolor="#ffffff"
     bordercolor="#000000"
     borderopacity="0.25"
     inkscape:showpageshadow="2"
     inkscape:pageopacity="0.0"
     inkscape:pagecheckerboard="true"
     inkscape:deskcolor="#d1d1d1"
     inkscape:document-units="px"
     inkscape:zoom="2.2179951"
     inkscape:cx="101.66839"
     inkscape:cy="160.73074"
     inkscape:window-width="1920"
     inkscape:window-height="1012"
     inkscape:window-x="0"
     inkscape:window-y="0"
     inkscape:window-maximized="1"
     inkscape:current-layer="g7" />
  <defs
     id="defs1">
    <inkscape:path-effect
       effect="curvestitching"
       id="path-effect2"
       is_visible="true"
       lpeversion="1"
       count="5"
       startpoint_edge_variation="0;612106951"
       startpoint_spacing_variation="0;1115684862"
       endpoint_edge_variation="1.4;1132462078"
       endpoint_spacing_variation="0;1"
       strokepath="#path1"
       prop_scale="1"
       scale_y_rel="false" />
    <inkscape:path-effect
       effect="envelope"
       id="path-effect1"
       is_visible="true"
       lpeversion="1"
       yy="true"
       xx="true"
       bendpath1="M 16.933311,-5.4012784e-6 H 50.799994"
       bendpath2="M 50.799994,-5.4012784e-6 V 33.8667"
       bendpath3="M 16.933311,33.8667 H 50.799994"
       bendpath4="M 16.933311,-5.4012784e-6 V 33.8667" />
  </defs>
  <g
     inkscape:label="Layer 1"
     inkscape:groupmode="layer"
     id="layer1">
    <path
       style="fill:none;stroke:#000000;stroke-width:0.529167;stroke-linecap:round;stroke-linejoin:round;stroke-dasharray:none;stroke-opacity:1;paint-order:fill markers stroke"
       d="m 0.2645835,56.531688 c 0.177778,-1.2445 0.355556,-2.4873 0.533333,-3.5927 0.177778,-1.1054 0.355556,-2.0701 0.533337,-2.8011 0.17777,-0.7309 0.35555,-1.2257 0.53333,-1.4616 0.17778,-0.2359 0.35556,-0.2121 0.53333,0.0194 0.17778,0.2315 0.35556,0.6698 0.53334,1.2084 0.17777,0.5386 0.35555,1.1752 0.53333,1.7868 0.17778,0.6116 0.35556,1.1953 0.53333,1.6536 0.17778,0.4583 0.35556,0.789 0.53334,0.9523 0.17777,0.1633 0.35555,0.1584 0.53333,0.0147 0.17778,-0.1436 0.35556,-0.4252 0.53333,-0.7591 0.17778,-0.334 0.35556,-0.7181 0.53334,-1.0438 0.17777,-0.3257 0.35555,-0.59 0.53333,-0.7025 0.17778,-0.1125 0.35556,-0.0707 0.53333,0.163 0.17778,0.2337 0.35556,0.6606 0.53334,1.2488 0.17777,0.5882 0.35555,1.3373 0.53333,2.1542 0.17778,0.8169 0.35556,1.6995 0.53333,2.5236 0.17778,0.824 0.35556,1.5863 0.53334,2.1731 0.17777,0.5868 0.35555,0.9948 0.53333,1.1603 0.1777795,0.1654 0.3555595,0.086 0.5332995,-0.2292 0.1778,-0.3152 0.3556,-0.8666 0.5334,-1.573 0.1777,-0.7065 0.3555,-1.5664 0.5333,-2.4514 0.1778,-0.885 0.3556,-1.7922 0.5333,-2.5865 0.1778,-0.7943 0.3556,-1.4723 0.5334,-1.9354 0.1777,-0.463 0.3555,-0.7084 0.5333,-0.7044 0.1778,0.004 0.3556,0.2585 0.5333,0.7197 0.1778,0.4613 0.3556,1.1286 0.5334,1.8992 0.1777,0.7705 0.3555,1.6422 0.5333,2.489 0.1778,0.8468 0.3556,1.6659 0.5333,2.3505 0.1778,0.6846 0.3556,1.2323 0.5334,1.5905 0.1777,0.3582 0.3555,0.5257 0.5333,0.5196 0.1778,-0.0062 0.3556,-0.1855 0.5333,-0.4607 0.1778,-0.2751 0.3556,-0.6441 0.5334,-0.9994 0.1777,-0.3553 0.3555,-0.6942 0.5333,-0.9198 0.1778,-0.2257 0.3556,-0.3355 0.5333,-0.2804 0.1778,0.0552 0.3556,0.2768 0.5334,0.6463 0.1777,0.3696 0.3555,0.8868 0.5333,1.4695 0.1778,0.5827 0.3556,1.2288 0.5333,1.8192 0.1778,0.5905 0.3556,1.122 0.5334,1.4792 0.1777,0.3572 0.3555,0.5367 0.5333,0.4675 0.1778,-0.0692 0.3556,-0.3896 0.5333,-0.9614 0.1778,-0.5718 0.3556,-1.3957 0.5334,-2.3976 0.1777,-1.0019 0.3555,-2.1807 0.5333,-3.4093 0.1778,-1.2285 0.3556,-2.5042 0.5333,-3.686 0.1778,-1.1817 0.3556,-2.2663 0.5334,-3.1422 0.1777,-0.876 0.3555,-1.5406 0.5333,-1.946 0.1778,-0.4053 0.3556,-0.5499 0.5333,-0.4621 0.1778,0.0878 0.3556,0.4077 0.5334,0.8679 0.1777,0.4602 0.3555,1.0587 0.5333,1.6732 0.1778,0.6146 0.3556,1.2424 0.5333,1.773 0.1778,0.5306 0.3556,0.9616 0.5334,1.2314 0.1777,0.2699 0.3555,0.3772 0.5333,0.3287 0.1778,-0.0485 0.3556,-0.2526 0.5333,-0.5425 0.1778,-0.2899 0.3556,-0.6638 0.5334,-1.0165 0.1777,-0.3526 0.3555,-0.681 0.5333,-0.8843 0.1778,-0.2034 0.3556,-0.2788 0.5333,-0.1683 0.1778,0.1106 0.3556,0.4089 0.5334,0.8867 0.1777,0.4777 0.3555,1.135 0.5333,1.8969 0.1778,0.7618 0.3556,1.6265 0.5333,2.4759 0.1778,0.8494 0.3556,1.6806 0.5334,2.3716 0.1777,0.6909 0.3555,1.2382 0.5333,1.5578 0.1778,0.3196 0.3556,0.4088 0.5333,0.2512 0.1778,-0.1577 0.3556,-0.5632 0.5334,-1.1578 0.1777,-0.5946 0.3555,-1.3774 0.5333,-2.2317 0.1778,-0.8543 0.3556,-1.7776 0.5333,-2.6321 0.1778,-0.8544 0.3556,-1.6367 0.5334,-2.2317 0.1777,-0.595 0.3555,-0.9996 0.5333,-1.1577 0.1778,-0.1582 0.3556,-0.068 0.5333,0.2511 0.1778,0.3192 0.3556,0.8672 0.5334,1.5579 0.1777,0.6906 0.3555,1.5221 0.5333,2.3715 0.1778,0.8494 0.3556,1.7139 0.5333,2.476 0.1778,0.762 0.3556,1.4188 0.5334,1.8969 0.1777,0.478 0.3555,0.7757 0.5333,0.8866 0.1778,0.1109 0.3556,0.0349 0.5333,-0.1682 0.1778,-0.2031 0.3556,-0.5318 0.5334,-0.8844 0.1777,-0.3526 0.3555,-0.7264 0.5333,-1.0165 0.1778,-0.2901 0.3556,-0.4937 0.5333,-0.5425 0.1778,-0.0488 0.3556,0.0592 0.5334,0.3287 0.1777,0.2695 0.3555,0.701 0.5333,1.2314 0.1778,0.5305 0.3556,1.1584 0.5333,1.773 0.1778,0.6145 0.3556,1.2128 0.5334,1.6732 0.1777,0.4605 0.3555,0.7797 0.5333,0.868 0.1778,0.0882 0.3556,-0.0574 0.5333,-0.4622 0.1778,-0.4048 0.3556,-1.0704 0.5334,-1.9459 0.1777,-0.8756 0.3555,-1.9607 0.5333,-3.1423 0.1778,-1.1816 0.3556,-2.4573 0.5333,-3.686 0.1778,-1.2287 0.3556,-2.407 0.5334,-3.4093 0.1777,-1.0022 0.3555,-1.8253 0.5333,-2.3976 0.1778,-0.5722 0.3556,-0.8917 0.5333,-0.9614 0.1778,-0.0697 0.3556,0.1107 0.5334,0.4676 0.1777,0.3568 0.3555,0.8888 0.5333,1.4791 0.1778,0.5903 0.3556,1.2364 0.5333,1.8192 0.1778,0.5828 0.3556,1.0997 0.5334,1.4695 0.1777,0.3698 0.3555,0.5908 0.5333,0.6463 0.1778,0.0555 0.3556,-0.0549 0.5333,-0.2803 0.1778,-0.2255 0.3556,-0.5646 0.5334,-0.9199 0.1777,-0.3553 0.3555,-0.7241 0.5333,-0.9994 0.1778,-0.2753 0.3556,-0.4542 0.5333,-0.4607 0.1778,-0.0064 0.3556,0.1618 0.5334,0.5196 0.1777,0.3579 0.3555,0.9062 0.5333,1.5905 0.1778,0.6844 0.3556,1.5037 0.5333,2.3505 0.1778,0.8468 0.3556,1.7183 0.5334,2.4891 0.1777,0.7708 0.3555,1.4374 0.5333,1.8991 0.1778,0.4616 0.3556,0.7152 0.5333,0.7197 0.1778,0.0045 0.3556,-0.2418 0.5334,-0.7044 0.1777,-0.4626 0.3555,-1.1413 0.5333,-1.9354 0.1778,-0.794 0.3556,-1.7014 0.5333,-2.5864 0.1778,-0.8851 0.3556,-1.7447 0.5334,-2.4514 0.1777,-0.7068 0.3555,-1.2574 0.5333,-1.5731 0.1778,-0.3156 0.3556,-0.3941 0.5333,-0.2291 0.1778,0.1649 0.3556,0.5738 0.5334,1.1603 0.1777,0.5864 0.3555,1.3491 0.5333,2.1731 0.1778,0.8239 0.3556,1.7065 0.5333,2.5235 0.1778,0.8171 0.3556,1.5657 0.5334,2.1542 0.1777,0.5885 0.3555,1.0147 0.5333,1.2488 0.1778,0.2341 0.3556,0.2753 0.5333,0.163 0.1778,-0.1122 0.3556,-0.3769 0.5334,-0.7025 0.1777,-0.3256 0.3555,-0.7097 0.5333,-1.0437 0.1778,-0.3341 0.3556,-0.6153 0.5333,-0.7592 0.1778,-0.1439 0.3556,-0.1482 0.5334,0.0147 0.1777,0.163 0.3555,0.4943 0.5333,0.9523 0.1778,0.4581 0.3556,1.0421 0.5333,1.6536 0.1778,0.6115 0.3556,1.248 0.5334,1.7868 0.1777,0.5388 0.3555,0.9765 0.5333,1.2084 0.1778,0.2319 0.3556,0.2549 0.5333,0.0194 0.1778,-0.2354 0.3556,-0.7311 0.5334,-1.4616 0.1777,-0.7305 0.3555,-1.696 0.5333,-2.8011 0.1778,-1.1051 0.3556,-2.3482 0.5333,-3.5926"
       title="sin(x) + sin(2*x) + sin(4*x)"
       id="path2" />
    <path
       style="fill:none;stroke:#000000;stroke-width:0.529167;stroke-linecap:round;stroke-linejoin:round;stroke-dasharray:none;stroke-opacity:0.85465252;paint-order:fill markers stroke"
       d="m 0.2666665,36.934751 c 0.177778,-0.1778 0.355556,-0.3556 0.533333,-0.5314 0.177778,-0.1758 0.355556,-0.3497 0.533337,-0.5197 0.17777,-0.17 0.35555,-0.3361 0.53333,-0.4966 0.17778,-0.1604 0.35556,-0.3152 0.53333,-0.4625 0.17778,-0.1474 0.35556,-0.2873 0.53334,-0.4184 0.17777,-0.131 0.35555,-0.2531 0.53333,-0.3649 0.17778,-0.1119 0.35556,-0.2134 0.53333,-0.3036 0.17778,-0.0901 0.35556,-0.1689 0.53334,-0.2354 0.17777,-0.0665 0.35555,-0.1207 0.53333,-0.1621 0.17778,-0.0414 0.35556,-0.07 0.53333,-0.0853 0.17778,-0.0154 0.35556,-0.0176 0.53334,-0.0066 0.17777,0.0109 0.35555,0.0351 0.53333,0.0722 0.17778,0.0371 0.35556,0.0872 0.53333,0.1496 0.17778,0.0624 0.35556,0.1372 0.53334,0.2235 0.17777,0.0863 0.35555,0.1843 0.53333,0.2926 0.17778,0.1084 0.35556,0.2272 0.53333,0.3552 0.17778,0.1281 0.35556,0.2653 0.53334,0.4101 0.17777,0.1449 0.35555,0.2974 0.53333,0.4559 0.1777805,0.1585 0.3555605,0.323 0.5332995,0.4916 0.1778,0.1687 0.3556,0.3415 0.5334,0.5166 0.1777,0.1752 0.3555,0.3526 0.5333,0.5303 0.1778,0.1777 0.3556,0.3558 0.5333,0.5322 0.1778,0.1764 0.3556,0.3512 0.5334,0.5224 0.1777,0.1713 0.3555,0.3389 0.5333,0.5012 0.1778,0.1623 0.3556,0.3192 0.5333,0.469 0.1778,0.1498 0.3556,0.2924 0.5334,0.4264 0.1777,0.1339 0.3555,0.2592 0.5333,0.3744 0.1778,0.1152 0.3556,0.2203 0.5333,0.3143 0.1778,0.0939 0.3556,0.1766 0.5334,0.2471 0.1777,0.0706 0.3555,0.129 0.5333,0.1747 0.1778,0.0457 0.3556,0.0785 0.5333,0.0983 0.1778,0.0198 0.3556,0.0263 0.5334,0.0198 0.1777,-0.0066 0.3555,-0.0265 0.5333,-0.0592 0.1778,-0.0328 0.3556,-0.0786 0.5333,-0.1369 0.1778,-0.0582 0.3556,-0.129 0.5334,-0.2115 0.1777,-0.0824 0.3555,-0.1766 0.5333,-0.2815 0.1778,-0.1048 0.3556,-0.2204 0.5333,-0.3453 0.1778,-0.1249 0.3556,-0.2592 0.5334,-0.4015 0.1777,-0.1422 0.3555,-0.2924 0.5333,-0.4489 0.1778,-0.1565 0.3556,-0.3192 0.5333,-0.4864 0.1778,-0.1672 0.3556,-0.339 0.5334,-0.5133 0.1777,-0.1743 0.3555,-0.3512 0.5333,-0.5287 0.1778,-0.1776 0.3556,-0.3558 0.5333,-0.5327 0.1778,-0.1769 0.3556,-0.3525 0.5334,-0.5249 0.1777,-0.1724 0.3555,-0.3415 0.5333,-0.5055 0.1778,-0.1641 0.3556,-0.323 0.5333,-0.4751 0.1778,-0.1521 0.3556,-0.2973 0.5334,-0.4341 0.1777,-0.1369 0.3555,-0.2652 0.5333,-0.3837 0.1778,-0.1186 0.3556,-0.2272 0.5333,-0.3249 0.1778,-0.0976 0.3556,-0.1841 0.5334,-0.2587 0.1777,-0.0746 0.3555,-0.1372 0.5333,-0.1871 0.1778,-0.0499 0.3556,-0.0871 0.5333,-0.1112 0.1778,-0.0241 0.3556,-0.0351 0.5334,-0.0329 0.1777,0.0022 0.3555,0.0176 0.5333,0.0461 0.1778,0.0284 0.3556,0.0699 0.5333,0.124 0.1778,0.0541 0.3556,0.1208 0.5334,0.1994 0.1777,0.0785 0.3555,0.1689 0.5333,0.2702 0.1778,0.1012 0.3556,0.2134 0.5333,0.3351 0.1778,0.1218 0.3556,0.2532 0.5334,0.3928 0.1777,0.1395 0.3555,0.2873 0.5333,0.4416 0.1778,0.1543 0.3556,0.3152 0.5333,0.4809 0.1778,0.1657 0.3556,0.3362 0.5334,0.5096 0.1777,0.1733 0.3555,0.3497 0.5333,0.5269 0.1778,0.1773 0.3556,0.3556 0.5333,0.5329 0.1778,0.1773 0.3556,0.3536 0.5334,0.527 0.1777,0.1734 0.3555,0.3438 0.5333,0.5095 0.1778,0.1657 0.3556,0.3266 0.5333,0.4809 0.1778,0.1543 0.3556,0.3021 0.5334,0.4417 0.1777,0.1396 0.3555,0.2709 0.5333,0.3927 0.1778,0.1218 0.3556,0.2339 0.5333,0.3352 0.1778,0.1012 0.3556,0.1916 0.5334,0.2702 0.1777,0.0785 0.3555,0.1452 0.5333,0.1993 0.1778,0.0541 0.3556,0.0956 0.5333,0.1241 0.1778,0.0285 0.3556,0.0438 0.5334,0.0461 0.1777,0.0022 0.3555,-0.0089 0.5333,-0.033 0.1778,-0.0241 0.3556,-0.0613 0.5333,-0.1112 0.1778,-0.0499 0.3556,-0.1125 0.5334,-0.187 0.1777,-0.0746 0.3555,-0.1612 0.5333,-0.2588 0.1778,-0.0976 0.3556,-0.2063 0.5333,-0.3248 0.1778,-0.1185 0.3556,-0.2469 0.5334,-0.3837 0.1777,-0.1368 0.3555,-0.2821 0.5333,-0.4342 0.1778,-0.1521 0.3556,-0.311 0.5333,-0.4751 0.1778,-0.164 0.3556,-0.3331 0.5334,-0.5055 0.1777,-0.1723 0.3555,-0.348 0.5333,-0.5249 0.1778,-0.1769 0.3556,-0.3551 0.5333,-0.5326 0.1778,-0.1776 0.3556,-0.3545 0.5334,-0.5288 0.1777,-0.1743 0.3555,-0.346 0.5333,-0.5133 0.1778,-0.1672 0.3556,-0.3299 0.5333,-0.4864 0.1778,-0.1564 0.3556,-0.3066 0.5334,-0.4489 0.1777,-0.1422 0.3555,-0.2766 0.5333,-0.4015 0.1778,-0.1249 0.3556,-0.2404 0.5333,-0.3453 0.1778,-0.1049 0.3556,-0.199 0.5334,-0.2815 0.1777,-0.0825 0.3555,-0.1532 0.5333,-0.2115 0.1778,-0.0583 0.3556,-0.104 0.5333,-0.1368 0.1778,-0.0328 0.3556,-0.0526 0.5334,-0.0592 0.1777,-0.0066 0.3555,0 0.5333,0.0197 0.1778,0.0198 0.3556,0.0527 0.5333,0.0983 0.1778,0.0457 0.3556,0.1041 0.5334,0.1747 0.1777,0.0705 0.3555,0.1533 0.5333,0.2472 0.1778,0.0939 0.3556,0.199 0.5333,0.3142 0.1778,0.1152 0.3556,0.2405 0.5334,0.3745 0.1777,0.1339 0.3555,0.2766 0.5333,0.4263 0.1778,0.1498 0.3556,0.3067 0.5333,0.469 0.1778,0.1623 0.3556,0.33 0.5334,0.5012 0.1777,0.1712 0.3555,0.346 0.5333,0.5225 0.1778,0.1764 0.3556,0.3544 0.5333,0.5321 0.1778,0.1778 0.3556,0.3552 0.5334,0.5303 0.1777,0.1751 0.3555,0.3479 0.5333,0.5166 0.1778,0.1687 0.3556,0.3332 0.5333,0.4917 0.1778,0.1585 0.3556,0.311 0.5334,0.4558 0.1777,0.1449 0.3555,0.2821 0.5333,0.4101 0.1778,0.128 0.3556,0.2468 0.5333,0.3552 0.1778,0.1084 0.3556,0.2063 0.5334,0.2926 0.1777,0.0864 0.3555,0.1611 0.5333,0.2235 0.1778,0.0625 0.3556,0.1125 0.5333,0.1496 0.1778,0.0371 0.3556,0.0613 0.5334,0.0723 0.1777,0.011 0.3555,0.0087 0.5333,-0.0066 0.1778,-0.0154 0.3556,-0.044 0.5333,-0.0853 0.1778,-0.0414 0.3556,-0.0957 0.5334,-0.1622 0.1777,-0.0665 0.3555,-0.1453 0.5333,-0.2354 0.1778,-0.0902 0.3556,-0.1917 0.5333,-0.3035 0.1778,-0.1118 0.3556,-0.234 0.5334,-0.365 0.1777,-0.131 0.3555,-0.271 0.5333,-0.4183 0.1778,-0.1474 0.3556,-0.3021 0.5333,-0.4626 0.1778,-0.1604 0.3556,-0.3266 0.5334,-0.4966 0.1777,-0.17 0.3555,-0.3438 0.5333,-0.5197 0.1778,-0.1758 0.3556,-0.3536 0.5333,-0.5313"
       title="sin(x)"
       id="path3" />
    <path
       style="fill:none;stroke:#000000;stroke-width:0.529167;stroke-linecap:round;stroke-linejoin:round;stroke-dasharray:none;stroke-opacity:0.59744489;paint-order:fill markers stroke"
       d="m 3.3e-5,21.765769 c 0.177778,-0.3556 0.355556,-0.7111 0.533333,-1.0511 0.177778,-0.34 0.355556,-0.6644 0.533337,-0.9591 0.17777,-0.2948 0.35555,-0.5597 0.53333,-0.7833 0.17778,-0.2237 0.35556,-0.4059 0.53333,-0.539 0.17778,-0.133 0.35556,-0.2166 0.53334,-0.2474 0.17777,-0.0308 0.35555,-0.0085 0.53333,0.0656 0.17778,0.0742 0.35556,0.2005 0.53333,0.3731 0.17778,0.1726 0.35556,0.3918 0.53334,0.6478 0.17777,0.256 0.35555,0.549 0.53333,0.866 0.17778,0.317 0.35556,0.658 0.53333,1.0082 0.17778,0.3503 0.35556,0.7096 0.53334,1.0625 0.17777,0.3528 0.35555,0.699 0.53333,1.0236 0.17778,0.3246 0.35556,0.6274 0.53333,0.8954 0.17778,0.2679 0.35556,0.5008 0.53334,0.6887 0.17777,0.1878 0.35555,0.3304 0.53333,0.4218 0.17778,0.0914 0.35556,0.1312 0.53333,0.1181 0.17778,-0.0132 0.35556,-0.0796 0.53334,-0.1961 0.17777,-0.1165 0.35555,-0.2833 0.53333,-0.493 0.17778,-0.2096 0.35556,-0.4623 0.533301,-0.7468 0.1778,-0.2845 0.3556,-0.6009 0.5334,-0.9353 0.1777,-0.3344 0.3555,-0.6869 0.5333,-1.042 0.1778,-0.3551 0.3556,-0.7128 0.5333,-1.0576 0.1778,-0.3447 0.3556,-0.6764 0.5334,-0.9806 0.1777,-0.3042 0.3555,-0.5808 0.5333,-0.8178 0.1778,-0.2371 0.3556,-0.4344 0.5333,-0.5836 0.1778,-0.1492 0.3556,-0.25 0.5334,-0.2983 0.1777,-0.0483 0.3555,-0.0437 0.5333,0.0132 0.1778,0.0568 0.3556,0.1663 0.5333,0.3234 0.1778,0.157 0.3556,0.3618 0.5334,0.6053 0.1777,0.2435 0.3555,0.5258 0.5333,0.8344 0.1778,0.3087 0.3556,0.6437 0.5333,0.9905 0.1778,0.3467 0.3556,0.7052 0.5334,1.0598 0.1777,0.3546 0.3555,0.7051 0.5333,1.0365 0.1778,0.3314 0.3556,0.6434 0.5333,0.9226 0.1778,0.2792 0.3556,0.5253 0.5334,0.7279 0.1777,0.2025 0.3555,0.3613 0.5333,0.4695 0.1778,0.1083 0.3556,0.1657 0.5333,0.1702 0.1778,0.0044 0.3556,-0.0445 0.5334,-0.1442 0.1777,-0.0997 0.3555,-0.2506 0.5333,-0.4458 0.1778,-0.1952 0.3556,-0.4349 0.5333,-0.7085 0.1778,-0.2736 0.3556,-0.5812 0.5334,-0.9093 0.1777,-0.328 0.3555,-0.6765 0.5333,-1.0304 0.1778,-0.3538 0.3556,-0.7128 0.5333,-1.0614 0.1778,-0.3486 0.3556,-0.6867 0.5334,-0.9997 0.1777,-0.3129 0.3555,-0.6005 0.5333,-0.8504 0.1778,-0.2499 0.3556,-0.4618 0.5333,-0.6268 0.1778,-0.165 0.3556,-0.2827 0.5334,-0.3483 0.1777,-0.0657 0.3555,-0.0789 0.5333,-0.0395 0.1778,0.0395 0.3556,0.1319 0.5333,0.273 0.1778,0.1411 0.3556,0.3311 0.5334,0.5614 0.1777,0.2304 0.3555,0.5013 0.5333,0.8008 0.1778,0.2996 0.3556,0.6277 0.5333,0.9702 0.1778,0.3425 0.3556,0.6992 0.5334,1.0546 0.1777,0.3555 0.3555,0.7096 0.5333,1.0469 0.1778,0.3374 0.3556,0.6578 0.5333,0.9475 0.1778,0.2898 0.3556,0.5485 0.5334,0.7653 0.1777,0.2168 0.3555,0.3913 0.5333,0.5161 0.1778,0.1249 0.3556,0.1998 0.5333,0.2219 0.1778,0.022 0.3556,-0.0092 0.5334,-0.0919 0.1777,-0.0828 0.3555,-0.2173 0.5333,-0.3976 0.1778,-0.1803 0.3556,-0.4065 0.5333,-0.6685 0.1778,-0.262 0.3556,-0.56 0.5334,-0.8809 0.1777,-0.3208 0.3555,-0.6646 0.5333,-1.0163 0.1778,-0.3516 0.3556,-0.7111 0.5333,-1.0627 0.1778,-0.3517 0.3556,-0.6954 0.5334,-1.0163 0.1777,-0.3209 0.3555,-0.6188 0.5333,-0.8809 0.1778,-0.2621 0.3556,-0.4881 0.5333,-0.6685 0.1778,-0.1803 0.3556,-0.3147 0.5334,-0.3975 0.1777,-0.0829 0.3555,-0.1139 0.5333,-0.0919 0.1778,0.0219 0.3556,0.097 0.5333,0.2218 0.1778,0.1248 0.3556,0.2994 0.5334,0.5161 0.1777,0.2167 0.3555,0.4756 0.5333,0.7653 0.1778,0.2897 0.3556,0.6102 0.5333,0.9475 0.1778,0.3373 0.3556,0.6914 0.5334,1.0469 0.1777,0.3554 0.3555,0.7121 0.5333,1.0546 0.1778,0.3425 0.3556,0.6706 0.5333,0.9702 0.1778,0.2996 0.3556,0.5704 0.5334,0.8008 0.1777,0.2305 0.3555,0.4203 0.5333,0.5614 0.1778,0.1412 0.3556,0.2334 0.5333,0.273 0.1778,0.0395 0.3556,0.0261 0.5334,-0.0394 0.1777,-0.0656 0.3555,-0.1835 0.5333,-0.3484 0.1778,-0.1649 0.3556,-0.377 0.5333,-0.6268 0.1778,-0.2498 0.3556,-0.5375 0.5334,-0.8504 0.1777,-0.3129 0.3555,-0.6511 0.5333,-0.9997 0.1778,-0.3486 0.3556,-0.7076 0.5333,-1.0614 0.1778,-0.3538 0.3556,-0.7023 0.5334,-1.0304 0.1777,-0.3281 0.3555,-0.6356 0.5333,-0.9092 0.1778,-0.2737 0.3556,-0.5133 0.5333,-0.7086 0.1778,-0.1952 0.3556,-0.3459 0.5334,-0.4458 0.1777,-0.0998 0.3555,-0.1485 0.5333,-0.1441 0.1778,0.0043 0.3556,0.062 0.5333,0.1701 0.1778,0.1082 0.3556,0.2671 0.5334,0.4696 0.1777,0.2025 0.3555,0.4487 0.5333,0.7279 0.1778,0.2791 0.3556,0.5912 0.5333,0.9225 0.1778,0.3314 0.3556,0.682 0.5334,1.0365 0.1777,0.3546 0.3555,0.7131 0.5333,1.0599 0.1778,0.3468 0.3556,0.6817 0.5333,0.9904 0.1778,0.3087 0.3556,0.5908 0.5334,0.8344 0.1777,0.2436 0.3555,0.4482 0.5333,0.6054 0.1778,0.1571 0.3556,0.2664 0.5333,0.3234 0.1778,0.057 0.3556,0.0613 0.5334,0.0131 0.1777,-0.0481 0.3555,-0.1491 0.5333,-0.2982 0.1778,-0.1492 0.3556,-0.3466 0.5333,-0.5836 0.1778,-0.237 0.3556,-0.5137 0.5334,-0.8179 0.1777,-0.3042 0.3555,-0.6359 0.5333,-0.9806 0.1778,-0.3447 0.3556,-0.7024 0.5333,-1.0575 0.1778,-0.3552 0.3556,-0.7076 0.5334,-1.0421 0.1777,-0.3344 0.3555,-0.6507 0.5333,-0.9353 0.1778,-0.2845 0.3556,-0.5371 0.5333,-0.7468 0.1778,-0.2097 0.3556,-0.3764 0.5334,-0.493 0.1777,-0.1166 0.3555,-0.1828 0.5333,-0.196 0.1778,-0.0133 0.3556,0.0268 0.5333,0.118 0.1778,0.0913 0.3556,0.2341 0.5334,0.4219 0.1777,0.1878 0.3555,0.4208 0.5333,0.6887 0.1778,0.2679 0.3556,0.5707 0.5333,0.8953 0.1778,0.3246 0.3556,0.6708 0.5334,1.0237 0.1777,0.3528 0.3555,0.7121 0.5333,1.0624 0.177799,0.3502 0.3556,0.6912 0.533299,1.0083 0.1778,0.317 0.355601,0.6098 0.5334,0.8659 0.1777,0.2561 0.3555,0.4751 0.5333,0.6478 0.1778,0.1727 0.355599,0.2988 0.533299,0.3731 0.177802,0.0743 0.3556,0.0964 0.5334,0.0657 0.177701,-0.0307 0.355502,-0.1145 0.5333,-0.2475 0.177801,-0.1329 0.3556,-0.3153 0.5333,-0.5389 0.1778,-0.2236 0.3556,-0.4886 0.5334,-0.7833 0.1777,-0.2947 0.3555,-0.6192 0.5333,-0.9592 0.1778,-0.34 0.3556,-0.6955 0.5333,-1.051"
       title="sin(2*x)"
       id="path4" />
    <path
       style="fill:none;stroke:#000000;stroke-width:0.529167;stroke-linecap:round;stroke-linejoin:round;stroke-dasharray:none;stroke-opacity:0.39398468;paint-order:fill markers stroke"
       d="m 0,6.5967788 c 0.177778,-0.7111 0.355556,-1.4207 0.533333,-2.0102 0.177778,-0.5896 0.35555598,-1.0561 0.533337,-1.3223 0.17777,-0.2662 0.35555,-0.33 0.53333,-0.1818 0.17778,0.1483 0.35556,0.509 0.53333,1.0209 0.17778,0.512 0.35556,1.1738 0.53334,1.8742 0.17777,0.7005 0.35555,1.4369 0.53333,2.0861 0.17778,0.649301 0.35556,1.208201 0.53333,1.584101 C 3.91111,10.02358 4.08889,10.21378 4.26667,10.18768 4.44444,10.16148 4.62222,9.9178798 4.8,9.4985798 c 0.17778,-0.4192 0.35556,-1.013301 0.53333,-1.682101 0.17778,-0.6688 0.35556,-1.4101 0.53334,-2.0996 0.17777,-0.6895 0.35555,-1.3242 0.53333,-1.7984 0.17778,-0.4743 0.35556,-0.7852 0.53333,-0.8819 0.17778,-0.0967 0.35556,0.0226 0.53334,0.3366 0.17777,0.314 0.35555,0.8225 0.53333,1.4397 0.17778,0.6172 0.35556,1.3411 0.53333,2.0503 0.17778,0.7092 0.35556,1.4006 0.53334,1.959101 0.17777,0.5584 0.35555,0.9808 0.53333,1.1974002 0.1777797,0.2166 0.3555597,0.2254 0.5333,0.026 0.1778,-0.1994002 0.3556,-0.6072002 0.5334,-1.1543002 0.1777,-0.547101 0.3555,-1.232001 0.5333,-1.939701 0.1778,-0.7076 0.3556,-1.4351 0.5333,-2.0611 0.1778,-0.6259 0.3556,-1.1471 0.5334,-1.4772 0.1777,-0.33 0.3555,-0.4665 0.5333,-0.3878 0.1778,0.0788 0.3556,0.3738 0.5333,0.8344 0.1778,0.4607 0.3556,1.0861 0.5334,1.771 0.1777,0.6849 0.3555,1.4268 0.5333,2.1015 0.1778,0.6747 0.3556,1.279201 0.5333,1.712801 0.1778,0.4337 0.3556,0.6938002 0.5334,0.7380002 0.1777,0.0441 0.3555,-0.1291 0.5333,-0.4895002 0.1778,-0.3604 0.3556,-0.9077 0.5333,-1.549401 0.1778,-0.6417 0.3556,-1.3757 0.5334,-2.079 0.1777,-0.7033 0.3555,-1.3729 0.5333,-1.8972 0.1778,-0.5243 0.3556,-0.9002 0.5333,-1.066 0.1778,-0.1658 0.3556,-0.1195 0.5334,0.1299 0.1777,0.2494 0.3555,0.7021 0.5333,1.2814 0.1778,0.5793 0.3556,1.2835 0.5333,1.9944 0.1778,0.7109 0.3556,1.4256 0.5334,2.0248 0.1777,0.599201 0.3555,1.079801 0.5333,1.362201 0.1778,0.2825002 0.3556,0.3645002 0.5333,0.2336002 0.1778,-0.1310002 0.3556,-0.4756002 0.5334,-0.9752002 0.1777,-0.4995 0.3555,-1.152901 0.5333,-1.850101 0.1778,-0.6971 0.3556,-1.4356 0.5333,-2.0918 0.1778,-0.6562 0.3556,-1.2271 0.5334,-1.6178 0.1777,-0.3906 0.3555,-0.5985 0.5333,-0.5899 0.1778,0.0086 0.3556,0.2348 0.5333,0.6397 0.1778,0.4049 0.3556,0.9878 0.5334,1.6504 0.1777,0.6627 0.3555,1.4028 0.5333,2.0964 0.1778,0.6936 0.3556,1.337601 0.5333,1.824801 0.1778,0.4872 0.3556,0.8147002 0.5334,0.9288002 0.1777,0.114 0.3555,0.013 0.5333,-0.2851002 0.1778,-0.2982 0.3556,-0.7932 0.5333,-1.401501 0.1778,-0.6083 0.3556,-1.3279 0.5334,-2.0381 0.1777,-0.7103 0.3555,-1.4082 0.5333,-1.9774 0.1778,-0.5691 0.3556,-1.0065 0.5333,-1.2398 0.1778,-0.2333 0.3556,-0.2604 0.5334,-0.078 0.1777,0.1825 0.3555,0.5749 0.5333,1.1106 0.1778,0.5357 0.3556,1.2133 0.5333,1.919 0.1778,0.7056 0.3556,1.4366 0.5334,2.0707 0.1777,0.634101 0.3555,1.168201 0.5333,1.513701 0.1778,0.3456002 0.3556,0.5001002 0.5333,0.4388002 0.1778,-0.0613 0.3556,-0.3393002 0.5334,-0.7864002 0.1777,-0.4472 0.3555,-1.062501 0.5333,-1.742501 0.1778,-0.6799 0.3556,-1.422 0.5333,-2.1021 0.1778,-0.6801 0.3556,-1.295 0.5334,-1.7424 0.1777,-0.4475 0.3555,-0.7247 0.5333,-0.7864 0.1778,-0.0617 0.3556,0.0935 0.5333,0.4387 0.1778,0.3452 0.3556,0.8799 0.5334,1.5138 0.1777,0.6339 0.3555,1.365 0.5333,2.0707 0.1778,0.7057 0.3556,1.383 0.5333,1.919001 0.1778,0.536 0.3556,0.9277 0.5334,1.1105002 0.1777,0.1828 0.3555,0.1549 0.5333,-0.078 0.1778,-0.2329 0.3556,-0.6709 0.5333,-1.2398 0.1778,-0.568901 0.3556,-1.267101 0.5334,-1.977301 0.1777,-0.7103 0.3555,-1.4297 0.5333,-2.0382 0.1778,-0.6085 0.3556,-1.1029 0.5333,-1.4014 0.1778,-0.2985 0.3556,-0.3988 0.5334,-0.2851 0.1777,0.1136 0.3555,0.4418 0.5333,0.9287 0.1778,0.4869 0.3556,1.1313 0.5333,1.8249 0.1778,0.6935 0.3556,1.4335 0.5334,2.0963 0.1777,0.6628 0.3555,1.245201 0.5333,1.650501 0.1778,0.4052 0.3556,0.6306002 0.5333,0.6397002 0.1778,0.009 0.3556,-0.1997002 0.5334,-0.5900002 0.1777,-0.3903 0.3555,-0.9617 0.5333,-1.617801 0.1778,-0.656 0.3556,-1.3945 0.5333,-2.0918 0.1778,-0.6973 0.3556,-1.3502 0.5334,-1.8501 0.1777,-0.4999 0.3555,-0.8438 0.5333,-0.9751 0.1778,-0.1314 0.3556,-0.0486 0.5333,0.2335 0.1778,0.282 0.3556,0.7633 0.5334,1.3622 0.1777,0.599 0.3555,1.3139 0.5333,2.0248 0.1778,0.7109 0.3556,1.4149 0.5333,1.994401 0.1778,0.5796 0.3556,1.0316 0.5334,1.2814 0.1777,0.2499002 0.3555,0.2953002 0.5333,0.1300002 0.1778,-0.1654002 0.3556,-0.5421002 0.5333,-1.0661002 0.1778,-0.524001 0.3556,-1.193901 0.5334,-1.897201 0.1777,-0.7032 0.3555,-1.4371 0.5333,-2.079 0.1778,-0.6419 0.3556,-1.1886 0.5333,-1.5494 0.1778,-0.3608 0.3556,-0.5332 0.5334,-0.4894 0.1777,0.0437 0.3555,0.3046 0.5333,0.7379 0.1778,0.4333 0.3556,1.0382 0.5333,1.7128 0.1778,0.6746 0.3556,1.4165 0.5334,2.1015 0.1777,0.685 0.3555,1.310001 0.5333,1.771001 0.1778,0.461 0.3556,0.7552002 0.5333,0.8344002 0.1778,0.0792 0.3556,-0.0581 0.5334,-0.3878002 0.1777,-0.3297 0.3555,-0.8515 0.5333,-1.477201 0.1778,-0.6257 0.3556,-1.3535 0.5333,-2.0611 0.1778,-0.7077 0.3556,-1.3923 0.5334,-1.9396 0.1777,-0.5474 0.3555,-0.9546 0.5333,-1.1544 0.1778,-0.1998 0.3556,-0.1902 0.5333,0.026 0.1778,0.2162 0.3556,0.6393 0.5334,1.1975 0.1777,0.5581 0.3555,1.2499 0.5333,1.959 0.1778,0.7092 0.3556,1.4329 0.5333,2.0503 0.1778,0.617401 0.3556,1.125401 0.5334,1.439801 0.1777,0.3144002 0.3555,0.4328002 0.5333,0.3365002 0.1778,-0.0962 0.3556,-0.4079002 0.5333,-0.8818002 0.1778,-0.474 0.3556,-1.109101 0.5334,-1.798501 0.1777,-0.6894 0.3555,-1.4306 0.5333,-2.0996 0.1778,-0.6689 0.3556,-1.2625 0.5333,-1.6821 0.1778,-0.4196 0.3556,-0.6624 0.5334,-0.689 0.1777,-0.0266 0.3555,0.1644 0.5333,0.5399 0.1778,0.3755 0.3556,0.9349 0.5333,1.584 0.1778,0.6491 0.3556,1.3856 0.5334,2.0861 0.1777,0.7005 0.3555,1.362 0.5333,1.874201 0.1778,0.5122 0.3556,0.8723 0.5333,1.0209002 0.1778,0.1486 0.3556,0.084 0.5334,-0.1818002 0.1777,-0.2658 0.3555,-0.7329 0.5333,-1.322201 0.1778,-0.5893 0.3556,-1.2991 0.5333,-2.0102"
       title="sin(4*x)"
       id="path5" />
    <g
       id="g7"
       transform="translate(2.1509338,-0.32697731)"
       style="stroke:#000000;stroke-opacity:0.39398468">
      <path
         style="fill:none;stroke:#000000;stroke-width:0.529167;stroke-linecap:round;stroke-linejoin:round;stroke-dasharray:none;stroke-opacity:0.39398468;paint-order:fill markers stroke"
         d="M 31.715733,12.146451 V 16.87007"
         id="path6" />
      <path
         style="fill:none;stroke:#000000;stroke-width:0.529167;stroke-linecap:round;stroke-linejoin:round;stroke-dasharray:none;stroke-opacity:0.39398468;paint-order:fill markers stroke"
         d="M 34.077542,14.50826 H 29.353923"
         id="path7" />
    </g>
    <g
       id="g9"
       transform="translate(2.1509337,14.841994)"
       style="stroke:#000000;stroke-opacity:0.59744489">
      <path
         style="fill:none;stroke:#000000;stroke-width:0.529167;stroke-linecap:round;stroke-linejoin:round;stroke-dasharray:none;stroke-opacity:0.59744489;paint-order:fill markers stroke"
         d="M 31.715733,12.146451 V 16.87007"
         id="path8" />
      <path
         style="fill:none;stroke:#000000;stroke-width:0.529167;stroke-linecap:round;stroke-linejoin:round;stroke-dasharray:none;stroke-opacity:0.59744489;paint-order:fill markers stroke"
         d="M 34.077542,14.50826 H 29.353923"
         id="path9" />
    </g>
    <g
       id="g11"
       transform="translate(2.4044237,30.010985)"
       style="stroke:#000000;stroke-opacity:0.85465252">
      <path
         style="fill:none;stroke:#000000;stroke-width:0.529167;stroke-linecap:round;stroke-linejoin:round;stroke-dasharray:none;stroke-opacity:0.85465252;paint-order:fill markers stroke"
         d="M 32.759515,12.146451 V 16.87007"
         id="path10" />
      <path
         style="fill:none;stroke:#000000;stroke-width:0.529167;stroke-linecap:round;stroke-linejoin:round;stroke-dasharray:none;stroke-opacity:0.85465252;paint-order:fill markers stroke"
         d="M 30.16497,16.870069 V 12.14645"
         id="path11" />
    </g>
  </g>
</svg>
